<svg id="SvgjsSvg1001" width="288" height="288" xmlns="http://www.w3.org/2000/svg" version="1.1" xmlns:xlink="http://www.w3.org/1999/xlink" xmlns:svgjs="http://svgjs.com/svgjs"><defs id="SvgjsDefs1002"></defs><g id="SvgjsG1008" transform="matrix(1,0,0,1,0,0)"><svg xmlns="http://www.w3.org/2000/svg" enable-background="new 0 0 512 512" viewBox="0 0 512 512" width="288" height="288"><polygon points="339.392 258.624 512 367.744 512 144.896" fill="#ffffff" class="color000 svgShape"></polygon><polygon points="0 144.896 0 367.744 172.608 258.624" fill="#ffffff" class="color000 svgShape"></polygon><path d="M480 80H32C16.032 80 3.36 91.904.96 107.232L256 275.264l255.04-168.032C508.64 91.904 495.968 80 480 80zM310.08 277.952l-45.28 29.824c-2.688 1.76-5.728 2.624-8.8 2.624-3.072 0-6.112-.864-8.8-2.624l-45.28-29.856L1.024 404.992C3.488 420.192 16.096 432 32 432h448c15.904 0 28.512-11.808 30.976-27.008L310.08 277.952z" fill="#ffffff" class="color000 svgShape"></path></svg></g></svg>